HIERARCHY
ROOT Pelvis
{
	OFFSET 0.000000 0.941512 0.000000
	CHANNELS 6 Xposition Yposition Zposition Zrotation Yrotation Xrotation 
	JOINT Pelvis_L_Hip
	{
		OFFSET 0.000000 0.000000 0.000000
		CHANNELS 3 Zrotation Yrotation Xrotation
		JOINT L_Hip
		{
			OFFSET 0.062321 -0.080322 -0.016990
			CHANNELS 3 Zrotation Yrotation Xrotation
			JOINT L_Knee
			{
				OFFSET 0.093051 -0.381305 -0.029784
				CHANNELS 3 Zrotation Yrotation Xrotation
				JOINT L_Ankle
				{
					OFFSET -0.010371 -0.431000 -0.033614
					CHANNELS 3 Zrotation Yrotation Xrotation
					End Site #name: L_Foot
					{
						OFFSET 0.069299 -0.038670 0.119418
					}
				}
			}
		}
	}
	JOINT Pelvis_R_Hip
	{
		OFFSET 0.000000 0.000000 0.000000
		CHANNELS 3 Zrotation Yrotation Xrotation
		JOINT R_Hip
		{
			OFFSET -0.055334 -0.094904 -0.002373
			CHANNELS 3 Zrotation Yrotation Xrotation
			JOINT R_Knee
			{
				OFFSET -0.064207 -0.384370 -0.019592
				CHANNELS 3 Zrotation Yrotation Xrotation
				JOINT R_Ankle
				{
					OFFSET 0.025418 -0.419734 -0.065953
					CHANNELS 3 Zrotation Yrotation Xrotation
					End Site #name: R_Foot
					{
						OFFSET -0.057233 -0.039888 0.132134
					}
				}
			}
		}
	}
	JOINT Pelvis_Spine1
	{
		OFFSET 0.000000 0.000000 0.000000
		CHANNELS 3 Zrotation Yrotation Xrotation
		JOINT Spine1
		{
			OFFSET -0.005562 0.124093 -0.043360
			CHANNELS 3 Zrotation Yrotation Xrotation
			JOINT Spine2
			{
				OFFSET 0.012244 0.139499 0.029894
				CHANNELS 3 Zrotation Yrotation Xrotation
				JOINT Spine3
				{
					OFFSET -0.002556 0.056561 0.009225
					CHANNELS 3 Zrotation Yrotation Xrotation
					JOINT Spine3_Neck
					{
						OFFSET 0.000000 0.000000 0.000000
						CHANNELS 3 Zrotation Yrotation Xrotation
						JOINT Neck
						{
							OFFSET -0.005205 0.217920 -0.024551
							CHANNELS 3 Zrotation Yrotation Xrotation
							End Site #name: Head
							{
								OFFSET 0.002365 0.091850 0.046637
							}
						}
					}
					JOINT Spine3_L_Collar
					{
						OFFSET 0.000000 0.000000 0.000000
						CHANNELS 3 Zrotation Yrotation Xrotation
						JOINT L_Collar
						{
							OFFSET 0.072225 0.116603 -0.009480
							CHANNELS 3 Zrotation Yrotation Xrotation
							JOINT L_Shoulder
							{
								OFFSET 0.115937 -0.058643 -0.021018
								CHANNELS 3 Zrotation Yrotation Xrotation
								JOINT L_Elbow
								{
									OFFSET 0.021994 -0.254722 -0.024492
									CHANNELS 3 Zrotation Yrotation Xrotation
									End Site #name: L_Wrist
									{
										OFFSET 0.048810 -0.240214 0.103329
									}
								}
							}
						}
					}
					JOINT Spine3_R_Collar
					{
						OFFSET 0.000000 0.000000 0.000000
						CHANNELS 3 Zrotation Yrotation Xrotation
						JOINT R_Collar
						{
							OFFSET -0.073372 0.120704 -0.024611
							CHANNELS 3 Zrotation Yrotation Xrotation
							JOINT R_Shoulder
							{
								OFFSET -0.108089 -0.054969 -0.020504
								CHANNELS 3 Zrotation Yrotation Xrotation
								JOINT R_Elbow
								{
									OFFSET -0.033684 -0.260739 0.009889
									CHANNELS 3 Zrotation Yrotation Xrotation
									End Site #name: R_Wrist
									{
										OFFSET -0.067980 -0.232763 0.118463
									}
								}
							}
						}
					}
				}
			}
		}
	}
}
MOTION
Frames: 11
Frame Time: 0.041667
0.000000 0.634885 0.000000 -3.422168 -4.751487 -22.915818 0.000000 0.000000 0.000000 14.986862 -6.403644 -49.796981 -17.843654 14.216277 78.193840 9.036105 -2.037158 -17.001171 0.000000 0.000000 0.000000 -13.763615 3.440463 -49.366619 24.719275 -14.072812 62.395937 -7.494509 -22.884207 0.812199 0.000000 0.000000 0.000000 1.370576 -1.824036 17.582477 -4.732863 4.378494 35.115716 5.659780 5.810830 -32.311388 0.000000 0.000000 0.000000 -10.953920 5.551932 8.193929 0.000000 0.000000 0.000000 17.216253 -13.804989 -6.596476 -11.288375 0.512622 -0.184754 -8.382726 -17.843856 -37.265509 0.000000 0.000000 0.000000 -14.514439 14.494682 -7.250000 10.721226 -1.851457 11.831633 -6.214085 9.965299 -41.951109 
-0.000093 0.634868 -0.000130 -3.408867 -4.749063 -22.944741 0.000000 0.000000 0.000000 14.992853 -6.397781 -49.766115 -17.874386 14.237199 78.169767 9.029066 -2.044803 -16.989604 0.000000 0.000000 0.000000 -13.765617 3.436625 -49.338527 24.721160 -14.070408 62.391184 -7.494509 -22.878748 0.803663 0.000000 0.000000 0.000000 1.367803 -1.809649 17.437243 -4.709270 4.364400 35.093148 5.662701 5.813108 -32.302382 0.000000 0.000000 0.000000 -10.838353 5.500443 8.313065 0.000000 0.000000 0.000000 17.211391 -13.818408 -6.606578 -11.326169 0.511840 -0.198107 -8.408235 -17.778331 -37.082642 0.000000 0.000000 0.000000 -14.506285 14.492952 -7.248866 10.732384 -1.848183 11.815545 -6.171088 9.928505 -41.756372 
-0.000188 0.634870 0.000037 -3.419106 -4.748015 -22.929845 0.000000 0.000000 0.000000 15.021964 -6.387628 -49.778349 -17.894079 14.255910 78.180365 9.032418 -2.033808 -16.995575 0.000000 0.000000 0.000000 -13.759906 3.438782 -49.340296 24.736365 -14.084420 62.387906 -7.506669 -22.894904 0.778549 0.000000 0.000000 0.000000 1.371231 -1.797590 17.288919 -4.696846 4.357222 35.080181 5.683401 5.824332 -32.295750 0.000000 0.000000 0.000000 -10.706823 5.435662 8.382844 0.000000 0.000000 0.000000 17.203007 -13.827892 -6.613804 -11.370489 0.513400 -0.200660 -8.444261 -17.744815 -36.946134 0.000000 0.000000 0.000000 -14.501696 14.496998 -7.251807 10.717275 -1.849426 11.822135 -6.121876 9.915011 -41.597497 
-0.000279 0.634897 0.000376 -3.445100 -4.748300 -22.872960 0.000000 0.000000 0.000000 15.054566 -6.380117 -49.827457 -17.892472 14.263480 78.217794 9.053641 -2.032986 -17.033924 0.000000 0.000000 0.000000 -13.751400 3.445263 -49.372247 24.756130 -14.105077 62.381170 -7.525358 -22.927547 0.752021 0.000000 0.000000 0.000000 1.373866 -1.788940 17.176856 -4.691523 4.348225 35.026083 5.714188 5.842710 -32.274366 0.000000 0.000000 0.000000 -10.579480 5.366702 8.375004 0.000000 0.000000 0.000000 17.205214 -13.825673 -6.611777 -11.414476 0.515481 -0.201776 -8.494624 -17.744994 -36.850790 0.000000 0.000000 0.000000 -14.493915 14.501199 -7.255163 10.688560 -1.856161 11.853367 -6.067682 9.935457 -41.503525 
-0.000294 0.634941 0.000826 -3.481430 -4.752494 -22.792625 0.000000 0.000000 0.000000 15.086053 -6.374100 -49.892141 -17.869290 14.256136 78.268998 9.084554 -2.048217 -17.092240 0.000000 0.000000 0.000000 -13.744552 3.452645 -49.414070 24.775511 -14.122115 62.354066 -7.540965 -22.962722 0.743207 0.000000 0.000000 0.000000 1.397604 -1.793875 17.136966 -4.695043 4.337087 34.923026 5.730604 5.850154 -32.248044 0.000000 0.000000 0.000000 -10.481818 5.309319 8.310416 0.000000 0.000000 0.000000 17.215683 -13.833702 -6.616747 -11.441594 0.523021 -0.171643 -8.546196 -17.766842 -36.799759 0.000000 0.000000 0.000000 -14.499491 14.510720 -7.261652 10.681835 -1.867823 11.904543 -6.016663 9.980574 -41.478827 
-0.000215 0.634996 0.001330 -3.525086 -4.765771 -22.697601 0.000000 0.000000 0.000000 15.128664 -6.363178 -49.969515 -17.841708 14.246853 78.320301 9.112340 -2.041204 -17.143476 0.000000 0.000000 0.000000 -13.738910 3.462649 -49.471481 24.802536 -14.142372 62.316588 -7.552365 -22.996113 0.748816 0.000000 0.000000 0.000000 1.445860 -1.809281 17.125131 -4.702840 4.330152 34.834426 5.731725 5.845306 -32.230991 0.000000 0.000000 0.000000 -10.436215 5.280741 8.252547 0.000000 0.000000 0.000000 17.218291 -13.857941 -6.634713 -11.440379 0.536841 -0.102490 -8.590138 -17.799391 -36.781020 0.000000 0.000000 0.000000 -14.516051 14.522192 -7.268725 10.685440 -1.881174 11.962957 -5.975951 10.033315 -41.497453 
-0.000126 0.635032 0.001836 -3.570011 -4.783419 -22.592736 0.000000 0.000000 0.000000 15.189706 -6.344990 -50.059047 -17.829412 14.251412 78.362197 9.136423 -2.045747 -17.187740 0.000000 0.000000 0.000000 -13.738666 3.472980 -49.546149 24.840275 -14.170771 62.276749 -7.560621 -23.023620 0.758882 0.000000 0.000000 0.000000 1.497328 -1.825688 17.113676 -4.711368 4.326116 34.761554 5.731777 5.836802 -32.204402 0.000000 0.000000 0.000000 -10.432901 5.279323 8.243635 0.000000 0.000000 0.000000 17.229562 -13.894553 -6.661578 -11.430265 0.551358 -0.028929 -8.623978 -17.833800 -36.786737 0.000000 0.000000 0.000000 -14.539702 14.532890 -7.274819 10.676725 -1.893868 12.019497 -5.936358 10.097490 -41.544625 
-0.000073 0.635041 0.002303 -3.613185 -4.795103 -22.484755 0.000000 0.000000 0.000000 15.258560 -6.325746 -50.158725 -17.825981 14.259874 78.396153 9.153213 -2.053012 -17.219613 0.000000 0.000000 0.000000 -13.748208 3.478911 -49.629827 24.889011 -14.208412 62.233700 -7.573101 -23.064031 0.771667 0.000000 0.000000 0.000000 1.540324 -1.840172 17.109455 -4.717802 4.320127 34.685344 5.725442 5.824688 -32.163598 0.000000 0.000000 0.000000 -10.437370 5.287706 8.299851 0.000000 0.000000 0.000000 17.262630 -13.921279 -6.680027 -11.423447 0.562006 0.023085 -8.663219 -17.885005 -36.817862 0.000000 0.000000 0.000000 -14.568795 14.533574 -7.274037 10.672428 -1.904718 12.066380 -5.896654 10.167746 -41.607505 
-0.000065 0.635017 0.002691 -3.656641 -4.802310 -22.372735 0.000000 0.000000 0.000000 15.329789 -6.307949 -50.272425 -17.817632 14.262532 78.431551 9.164313 -2.061333 -17.242216 0.000000 0.000000 0.000000 -13.764651 3.481801 -49.720981 24.949681 -14.254263 62.179795 -7.586051 -23.110253 0.792310 0.000000 0.000000 0.000000 1.567669 -1.851122 17.120081 -4.726161 4.313325 34.596332 5.715092 5.815177 -32.106816 0.000000 0.000000 0.000000 -10.419603 5.286551 8.385339 0.000000 0.000000 0.000000 17.318187 -13.927140 -6.681350 -11.439351 0.571864 0.064532 -8.690651 -17.946214 -36.897036 0.000000 0.000000 0.000000 -14.615832 14.532930 -7.272388 10.723868 -1.917554 12.114857 -5.892396 10.202915 -41.686613 
-0.000100 0.634985 0.002964 -3.696382 -4.811483 -22.254544 0.000000 0.000000 0.000000 15.393579 -6.293654 -50.396819 -17.801543 14.261779 78.464108 9.174896 -2.061271 -17.261863 0.000000 0.000000 0.000000 -13.784124 3.484982 -49.821974 25.019792 -14.305613 62.118358 -7.599808 -23.157145 0.810672 0.000000 0.000000 0.000000 1.571021 -1.854485 17.135322 -4.737795 4.309703 34.514528 5.713081 5.816450 -32.040687 0.000000 0.000000 0.000000 -10.382892 5.274091 8.458156 0.000000 0.000000 0.000000 17.371454 -13.917822 -6.671453 -11.478483 0.583534 0.108703 -8.675653 -17.995997 -37.035741 0.000000 0.000000 0.000000 -14.671013 14.545841 -7.280208 10.812819 -1.933720 12.172822 -5.943562 10.183820 -41.788523 
-0.000122 0.634917 0.003180 -3.735861 -4.826055 -22.144112 0.000000 0.000000 0.000000 15.461599 -6.276144 -50.517952 -17.778933 14.253675 78.501468 9.182771 -2.056998 -17.278628 0.000000 0.000000 0.000000 -13.801223 3.489623 -49.917775 25.090907 -14.353396 62.045632 -7.612625 -23.205585 0.836062 0.000000 0.000000 0.000000 1.543198 -1.848054 17.158851 -4.746523 4.306680 34.442412 5.731023 5.832999 -31.968498 0.000000 0.000000 0.000000 -10.344100 5.260116 8.526384 0.000000 0.000000 0.000000 17.394999 -13.890069 -6.649192 -11.529016 0.596987 0.158935 -8.622907 -18.030928 -37.221784 0.000000 0.000000 0.000000 -14.695356 14.547682 -7.281298 10.888113 -1.950143 12.232382 -6.020173 10.149517 -41.918350 
